<svg id="Layer_1" data-name="Layer 1" xmlns="http://www.w3.org/2000/svg" viewBox="0 0 140 140"><defs><style>.cls-1{fill:none;}.cls-2{fill:#fff;}</style></defs><title>cart-icon</title><path d="M121.66,105.27c-3.63,0-7.26.09-10.88-.07-.81,0-1.59-1-2.39-1.46.79-.71,1.57-2,2.37-2q10.89-.26,21.77,0c.81,0,1.59,1.31,2.38,2-.79.53-1.55,1.48-2.36,1.52C128.92,105.37,125.29,105.28,121.66,105.27Z"/><path d="M118.23,54.15a65.23,65.23,0,0,1-7.27-.08c-.93-.1-1.75-1.16-2.62-1.78.82-.68,1.63-1.9,2.48-1.93,4.85-.19,9.7-.2,14.54,0,1,0,1.88,1.32,2.81,2-.89.58-1.74,1.58-2.68,1.67C123.09,54.31,120.65,54.15,118.23,54.15Z"/><path d="M112.39,35.29,116.7,38c-1.46.58-2.92,1.58-4.39,1.61-1.31,0-2.63-1-4-1.62Z"/><path d="M136.69,67,140,69.4c-1.14.61-2.27,1.65-3.44,1.71-1,0-2.06-1-3.1-1.59Z"/><path class="cls-1" d="M27.57,98.54a1.92,1.92,0,0,1,.18-.31A1.92,1.92,0,0,0,27.57,98.54Z"/><path class="cls-1" d="M104.07,88.8c-.8-.07-1.53-1.12-2.28-1.71.77-.56,1.6-1.64,2.32-1.58,4,.35,3.92-1.82,3.55-4.79-2.52-20.09-19.45-37.55-39.3-40.36-21.87-3.09-42.78,8.31-50.9,28.18-2.08,5.09-3,10.67-4.56,16.62,21.58.79,41.9-.46,62.13.7,0,.69.11,1.38.16,2.06a27,27,0,0,1-4.94.92c-18.76.07-37.52,0-56.28,0-1.53,0-3.06.16-4.89.26,1,3.29,2.92,4.14,5.65,4.14,30.91,0,61.82,0,92.72-.12,1.78,0,3.54-1.58,5.32-2.42l-.69-1.87C109.41,88.88,106.73,89,104.07,88.8Z"/><path d="M126.47,71.14c1,0,1.89-1.23,2.84-1.89-1-.48-1.91-1.35-2.89-1.38-5.12-.15-10.25,0-15.37-.14-1.18,0-2.84-.51-3.4-1.36-2.48-3.78-4.63-7.78-6.51-11l3.58-3.41c-.94-.56-1.93-1.69-2.79-1.59-8.74,1-12.38-7.39-19.23-10,5.54-.63,10.89-.5,16.22-.72,1.27,0,2.5-1.25,3.74-1.92-1.24-.49-2.49-1.41-3.74-1.42-12.68-.11-25.36-.17-38-.06-25.19.2-44.86,16.39-50,41.08-.5,2.36,0,5.65-1.4,6.92S4.71,85,2.29,85.46c-.85.18-1.53,1.11-2.29,1.7.65.56,1.28,1.12,1.94,1.65,1.35,1.1,3.09,1.92,4,3.3C8.06,95.45,10.5,97.55,14.8,97A73.79,73.79,0,0,1,23.47,97c.66,9.84,3.25,13.79,9.32,13.8,2.52,0,6-.56,7.35-2.24,2.38-3,3.45-7.09,5.29-11.21H77.67c.1,9.33,3.56,13.76,10.36,13.62s10.18-4.73,9.76-14a75.29,75.29,0,0,1,9.28.07c4.55.58,7.05-1.66,8.94-5.32A9.57,9.57,0,0,1,118.12,89a29,29,0,0,1,3.37-2.3,38,38,0,0,0-4.23-1.27c-1.18-.22-2.5.16-3.61-.19a3.27,3.27,0,0,1-2-1.93c-.73-3.79-1.2-7.63-1.85-12.07C115.48,71.22,121,71.32,126.47,71.14ZM33.58,107.27c-3.41-.14-6.52-3.37-6.39-6.64a8.81,8.81,0,0,1,.18-1.53,2.83,2.83,0,0,1,.2-.56,1.92,1.92,0,0,1,.18-.31c.73-1.07,2.37-1.28,6.07-1.26,2.09.12,4.61-.49,5.83,1.16a4.5,4.5,0,0,1,.74,2.51C40.57,104.06,37.08,107.41,33.58,107.27Zm54.38,0a6.63,6.63,0,0,1-6.65-6.67c.24-4.68,3.77-3.5,6.54-3.61,2.88.06,6.35-.89,6.51,3.76A6.65,6.65,0,0,1,88,107.25Zm24.12-18.37.69,1.87c-1.78.84-3.54,2.41-5.32,2.42-30.9.14-61.81.08-92.72.12-2.73,0-4.61-.85-5.65-4.14,1.83-.1,3.36-.26,4.89-.26,18.76,0,37.52,0,56.28,0a27,27,0,0,0,4.94-.92c0-.68-.11-1.37-.16-2.06C54.8,84.7,34.48,86,12.9,85.16c1.59-6,2.48-11.53,4.56-16.62,8.12-19.87,29-31.27,50.9-28.18,19.85,2.81,36.78,20.27,39.3,40.36.37,3,.45,5.14-3.55,4.79-.72-.06-1.55,1-2.32,1.58.75.59,1.48,1.64,2.28,1.71C106.73,89,109.41,88.88,112.08,88.88Z"/><path class="cls-2" d="M27.37,99.1a2.83,2.83,0,0,1,.2-.56A2.83,2.83,0,0,0,27.37,99.1Z"/><path class="cls-2" d="M33.82,97c2.09.12,4.61-.49,5.83,1.16-1.22-1.65-3.74-1-5.83-1.16-3.7,0-5.34.19-6.07,1.26C28.48,97.16,30.12,97,33.82,97Z"/><path d="M61,18.23c-5.75-.12-8.33,1.45-8.35,5.09,0,5.3,4,11.13,7.87,11.34S68.92,29,69,23.41C69,19.8,66.76,18.35,61,18.23Zm3.9,5.84a10.13,10.13,0,0,1-4.11,7.52c-1.86-1.47-4.33-4-4.9-7.25-.11-.64-.95-3.79,4.38-3.83C66,20.47,65,23.69,64.92,24.07Z"/><path d="M22.57,78.53c-.24-12.19,11.29-28.42,22.57-32.42.85-.3,2,.35,3.06.56-.67,1-1.12,2.38-2.05,2.86A35.75,35.75,0,0,0,28.47,69.1C27.39,72,27,75.07,26,78c-.29.88-1.34,1.52-2,2.27Z"/></svg>