<svg id="Layer_1" data-name="Layer 1" xmlns="http://www.w3.org/2000/svg" viewBox="0 0 140 140"><title>logo-symbol</title><path d="M70.16,0a70.16,70.16,0,1,0,70.17,70.16A70.23,70.23,0,0,0,70.16,0m0,132.63a62.47,62.47,0,1,1,62.47-62.47,62.54,62.54,0,0,1-62.47,62.47"/><path d="M80.12,74.13A3.86,3.86,0,0,0,76.27,78V95.41a3.85,3.85,0,0,0,7.7,0V78a3.86,3.86,0,0,0-3.85-3.85"/><path d="M108.49,44.67H79a3.85,3.85,0,1,0,0,7.69h29.52a3.85,3.85,0,1,0,0-7.69"/><path d="M108.49,62.55H79a3.85,3.85,0,1,0,0,7.69h29.52a3.85,3.85,0,1,0,0-7.69"/><path d="M62.79,44.67H33.27a3.85,3.85,0,0,0,0,7.69H62.79a3.85,3.85,0,1,0,0-7.69"/><path d="M46.49,73.32,58.76,61.05a3.85,3.85,0,0,0-5.44-5.44L41.05,67.89a3.84,3.84,0,0,0,0,5.43,3.84,3.84,0,0,0,5.44,0"/><path d="M54.86,68.37a3.85,3.85,0,0,0,.07,5.44,10.82,10.82,0,0,1,3.3,7.82,10.92,10.92,0,0,1-20.77,4.74,3.85,3.85,0,0,0-6.93,3.34,18.62,18.62,0,0,0,35.39-8.08A18.5,18.5,0,0,0,60.3,68.3a3.85,3.85,0,0,0-5.44.07"/></svg>